<?xml version="1.0" encoding="UTF-8" standalone="no"?>
<!-- Created with Inkscape (http://www.inkscape.org/) -->

<svg
   width="510mm"
   height="357mm"
   viewBox="0 0 510 357"
   version="1.1"
   id="svg1"
   inkscape:version="1.3 (0e150ed, 2023-07-21)"
   sodipodi:docname="fig-06-ray-sphere-solutions.svg"
   xmlns:inkscape="http://www.inkscape.org/namespaces/inkscape"
   xmlns:sodipodi="http://sodipodi.sourceforge.net/DTD/sodipodi-0.dtd"
   xmlns="http://www.w3.org/2000/svg"
   xmlns:svg="http://www.w3.org/2000/svg">
  <sodipodi:namedview
     id="namedview1"
     pagecolor="#ffffff"
     bordercolor="#000000"
     borderopacity="0.25"
     inkscape:showpageshadow="2"
     inkscape:pageopacity="0.0"
     inkscape:pagecheckerboard="0"
     inkscape:deskcolor="#d1d1d1"
     inkscape:document-units="mm"
     inkscape:zoom="0.79259366"
     inkscape:cx="1146.8676"
     inkscape:cy="1012.4986"
     inkscape:window-width="1648"
     inkscape:window-height="980"
     inkscape:window-x="12"
     inkscape:window-y="54"
     inkscape:window-maximized="0"
     inkscape:current-layer="layer1"
     showguides="false" />
  <defs
     id="defs1">
    <rect
       x="93.133446"
       y="86.318802"
       width="1453.7903"
       height="420.23627"
       id="rect1" />
  </defs>
  <g
     inkscape:label="Layer 1"
     inkscape:groupmode="layer"
     id="layer1">
    <path
       style="fill:#e3e3e3;fill-opacity:1;stroke:#000000;stroke-width:0.981502;stroke-dasharray:none;stroke-opacity:1"
       id="path6"
       sodipodi:type="arc"
       sodipodi:cx="123.97259"
       sodipodi:cy="93.536148"
       sodipodi:rx="43.12133"
       sodipodi:ry="43.12133"
       sodipodi:start="0.93349205"
       sodipodi:end="0.92436405"
       sodipodi:arc-type="chord"
       d="M 149.63112,128.19288 A 43.12133,43.12133 0 0 1 89.3745,119.2737 43.12133,43.12133 0 0 1 98.156152,58.996884 43.12133,43.12133 0 0 1 158.45285,67.640961 43.12133,43.12133 0 0 1 149.94639,127.95723 Z"
       sodipodi:open="true" />
    <path
       style="fill:#e3e3e3;fill-opacity:1;stroke:#676767;stroke-width:0.395831;stroke-dasharray:1.18749, 1.18749;stroke-dashoffset:0;stroke-opacity:1"
       d="M 0.24343864,137.00679 139.72001,0.24827695"
       id="path7-0" />
    <path
       style="fill:#e3e3e3;fill-opacity:1;stroke:#000000;stroke-width:0.501185;stroke-dasharray:none;stroke-opacity:1"
       d="M 20.932514,116.7088 103.48893,35.761201"
       id="path7" />
    <path
       style="fill:#000000;fill-opacity:1;stroke:#000000;stroke-width:1.05014;stroke-dasharray:none;stroke-opacity:0"
       id="path8"
       sodipodi:type="arc"
       sodipodi:cx="20.757082"
       sodipodi:cy="116.88772"
       sodipodi:rx="1.7588506"
       sodipodi:ry="1.7588506"
       sodipodi:start="0.93349205"
       sodipodi:end="0.92436405"
       sodipodi:open="true"
       sodipodi:arc-type="chord"
       d="m 21.803653,118.30131 a 1.7588506,1.7588506 0 0 1 -2.457772,-0.3638 1.7588506,1.7588506 0 0 1 0.35819,-2.45859 1.7588506,1.7588506 0 0 1 2.459406,0.35257 1.7588506,1.7588506 0 0 1 -0.346965,2.46021 z" />
    <path
       sodipodi:type="star"
       style="fill:#000000;fill-opacity:1;stroke:#000000;stroke-width:0.332999;stroke-dasharray:none;stroke-opacity:0"
       id="path9"
       inkscape:flatsided="false"
       sodipodi:sides="3"
       sodipodi:cx="19.199635"
       sodipodi:cy="32.035961"
       sodipodi:r1="1.2841485"
       sodipodi:r2="0.64207411"
       sodipodi:arg1="1.2220253"
       sodipodi:arg2="2.2692229"
       inkscape:rounded="0"
       inkscape:randomized="0"
       d="m 19.638483,33.242795 -0.851711,-0.715098 -0.851711,-0.715099 1.045149,-0.380054 1.045149,-0.380054 -0.193438,1.095153 z"
       inkscape:transform-center-x="0.47728484"
       inkscape:transform-center-y="0.51351897"
       transform="matrix(2.9672852,0.28804673,-0.28804673,2.9672852,56.522485,-65.654637)" />
    <path
       style="fill:#e3e3e3;fill-opacity:1;stroke:#000000;stroke-width:0.981502;stroke-dasharray:none;stroke-opacity:1"
       id="path6-9"
       sodipodi:type="arc"
       sodipodi:cx="272.16412"
       sodipodi:cy="93.536148"
       sodipodi:rx="43.12133"
       sodipodi:ry="43.12133"
       sodipodi:start="0.93349205"
       sodipodi:end="0.92436405"
       sodipodi:arc-type="chord"
       d="m 297.82265,128.19288 a 43.12133,43.12133 0 0 1 -60.25661,-8.91918 43.12133,43.12133 0 0 1 8.78165,-60.276816 43.12133,43.12133 0 0 1 60.29669,8.644077 43.12133,43.12133 0 0 1 -8.50645,60.316269 z"
       sodipodi:open="true" />
    <path
       style="fill:#e3e3e3;fill-opacity:1;stroke:#676767;stroke-width:0.395831;stroke-dasharray:1.18749, 1.18749;stroke-dashoffset:0;stroke-opacity:1"
       d="M 165.89791,137.00679 305.37448,0.248274"
       id="path7-0-3" />
    <path
       style="fill:#e3e3e3;fill-opacity:1;stroke:#000000;stroke-width:0.501185;stroke-dasharray:none;stroke-opacity:1"
       d="M 186.58698,116.7088 269.1434,35.761198"
       id="path7-05" />
    <path
       style="fill:#000000;fill-opacity:1;stroke:#000000;stroke-width:1.05014;stroke-dasharray:none;stroke-opacity:0"
       id="path8-2"
       sodipodi:type="arc"
       sodipodi:cx="186.41188"
       sodipodi:cy="116.88772"
       sodipodi:rx="1.7588506"
       sodipodi:ry="1.7588506"
       sodipodi:start="0.93349205"
       sodipodi:end="0.92436405"
       sodipodi:open="true"
       sodipodi:arc-type="chord"
       d="m 187.45845,118.30131 a 1.7588506,1.7588506 0 0 1 -2.45777,-0.3638 1.7588506,1.7588506 0 0 1 0.35819,-2.45859 1.7588506,1.7588506 0 0 1 2.45941,0.35257 1.7588506,1.7588506 0 0 1 -0.34697,2.46021 z" />
    <path
       sodipodi:type="star"
       style="fill:#000000;fill-opacity:1;stroke:#000000;stroke-width:0.332999;stroke-dasharray:none;stroke-opacity:0"
       id="path9-3"
       inkscape:flatsided="false"
       sodipodi:sides="3"
       sodipodi:cx="19.199635"
       sodipodi:cy="32.035961"
       sodipodi:r1="1.2841485"
       sodipodi:r2="0.64207411"
       sodipodi:arg1="1.2220253"
       sodipodi:arg2="2.2692229"
       inkscape:rounded="0"
       inkscape:randomized="0"
       d="m 19.638483,33.242795 -0.851711,-0.715098 -0.851711,-0.715099 1.045149,-0.380054 1.045149,-0.380054 -0.193438,1.095153 z"
       inkscape:transform-center-x="0.47728484"
       inkscape:transform-center-y="0.51351897"
       transform="matrix(2.9672852,0.28804673,-0.28804673,2.9672852,222.17695,-65.654637)" />
    <path
       style="fill:#e3e3e3;fill-opacity:1;stroke:#000000;stroke-width:0.981502;stroke-dasharray:none;stroke-opacity:1"
       id="path6-9-4"
       sodipodi:type="arc"
       sodipodi:cx="430.60867"
       sodipodi:cy="93.536148"
       sodipodi:rx="43.12133"
       sodipodi:ry="43.12133"
       sodipodi:start="0.93349205"
       sodipodi:end="0.92436405"
       sodipodi:arc-type="chord"
       d="m 456.2672,128.19288 a 43.12133,43.12133 0 0 1 -60.25661,-8.91918 43.12133,43.12133 0 0 1 8.78165,-60.276816 43.12133,43.12133 0 0 1 60.29669,8.644077 43.12133,43.12133 0 0 1 -8.50645,60.316269 z"
       sodipodi:open="true" />
    <path
       style="fill:#e3e3e3;fill-opacity:1;stroke:#676767;stroke-width:0.395831;stroke-dasharray:1.18749, 1.18749;stroke-dashoffset:0;stroke-opacity:1"
       d="M 355.03431,137.00679 494.51088,0.24826855"
       id="path7-0-3-5" />
    <path
       style="fill:#e3e3e3;fill-opacity:1;stroke:#000000;stroke-width:0.501185;stroke-dasharray:none;stroke-opacity:1"
       d="M 375.72338,116.7088 458.2798,35.761193"
       id="path7-05-3" />
    <path
       style="fill:#000000;fill-opacity:1;stroke:#000000;stroke-width:1.05014;stroke-dasharray:none;stroke-opacity:0"
       id="path8-2-0"
       sodipodi:type="arc"
       sodipodi:cx="375.54855"
       sodipodi:cy="116.88771"
       sodipodi:rx="1.7588506"
       sodipodi:ry="1.7588506"
       sodipodi:start="0.93349205"
       sodipodi:end="0.92436405"
       sodipodi:open="true"
       sodipodi:arc-type="chord"
       d="m 376.59512,118.3013 a 1.7588506,1.7588506 0 0 1 -2.45777,-0.3638 1.7588506,1.7588506 0 0 1 0.35819,-2.45859 1.7588506,1.7588506 0 0 1 2.45941,0.35258 1.7588506,1.7588506 0 0 1 -0.34697,2.4602 z" />
    <path
       sodipodi:type="star"
       style="fill:#000000;fill-opacity:1;stroke:#000000;stroke-width:0.332999;stroke-dasharray:none;stroke-opacity:0"
       id="path9-3-1"
       inkscape:flatsided="false"
       sodipodi:sides="3"
       sodipodi:cx="19.199635"
       sodipodi:cy="32.035961"
       sodipodi:r1="1.2841485"
       sodipodi:r2="0.64207411"
       sodipodi:arg1="1.2220253"
       sodipodi:arg2="2.2692229"
       inkscape:rounded="0"
       inkscape:randomized="0"
       d="m 19.638483,33.242795 -0.851711,-0.715098 -0.851711,-0.715099 1.045149,-0.380054 1.045149,-0.380054 -0.193438,1.095153 z"
       inkscape:transform-center-x="0.47728484"
       inkscape:transform-center-y="0.51351897"
       transform="matrix(2.9672852,0.28804673,-0.28804673,2.9672852,411.31335,-65.654642)" />
    <text
       xml:space="preserve"
       style="font-size:12.7429px;font-family:Arial;-inkscape-font-specification:Arial;text-align:center;text-anchor:middle;fill:#000000;fill-opacity:1;stroke:#676767;stroke-width:0;stroke-dasharray:none;stroke-dashoffset:0;stroke-opacity:1"
       x="123.99117"
       y="164.51688"
       id="text9"><tspan
         sodipodi:role="line"
         id="tspan9"
         style="font-weight:normal;font-size:12.7429px;stroke-width:0;stroke-dasharray:none;stroke-dashoffset:0"
         x="123.99117"
         y="164.51688">no intersection</tspan></text>
    <text
       xml:space="preserve"
       style="font-size:12.7429px;font-family:Arial;-inkscape-font-specification:Arial;text-align:center;text-anchor:middle;fill:#000000;fill-opacity:1;stroke:#676767;stroke-width:0;stroke-dasharray:none;stroke-dashoffset:0;stroke-opacity:1"
       x="271.28635"
       y="164.53554"
       id="text9-9"><tspan
         sodipodi:role="line"
         id="tspan9-3"
         style="font-weight:normal;font-size:12.7429px;stroke-width:0;stroke-dasharray:none;stroke-dashoffset:0"
         x="271.28635"
         y="164.53554">1 intersection</tspan></text>
    <text
       xml:space="preserve"
       style="font-size:12.7429px;font-family:Arial;-inkscape-font-specification:Arial;text-align:center;text-anchor:middle;fill:#000000;fill-opacity:1;stroke:#676767;stroke-width:0;stroke-dasharray:none;stroke-dashoffset:0;stroke-opacity:1"
       x="428.72482"
       y="164.53554"
       id="text9-9-0"><tspan
         sodipodi:role="line"
         id="tspan9-3-8"
         style="font-weight:normal;font-size:12.7429px;stroke-width:0;stroke-dasharray:none;stroke-dashoffset:0"
         x="428.72482"
         y="164.53554">2 intersections</tspan></text>
    <path
       style="fill:#ffb000;fill-opacity:1;stroke:#000000;stroke-width:0.926;stroke-dasharray:none;stroke-opacity:1"
       id="path8-2-8"
       sodipodi:type="arc"
       sodipodi:cx="242.44391"
       sodipodi:cy="62.035416"
       sodipodi:rx="2.5890899"
       sodipodi:ry="2.524168"
       sodipodi:start="0.93349205"
       sodipodi:end="0.92436405"
       sodipodi:open="true"
       sodipodi:arc-type="chord"
       d="m 243.9845,64.064096 a 2.5890899,2.524168 0 0 1 -3.61793,-0.522096 2.5890899,2.524168 0 0 1 0.52727,-3.528389 2.5890899,2.524168 0 0 1 3.62033,0.505993 2.5890899,2.524168 0 0 1 -0.51074,3.530698 z" />
    <path
       style="fill:#ffb000;fill-opacity:1;stroke:#000000;stroke-width:0.926;stroke-dasharray:none;stroke-opacity:1"
       id="path8-2-8-7"
       sodipodi:type="arc"
       sodipodi:cx="388.83987"
       sodipodi:cy="103.77837"
       sodipodi:rx="2.5890899"
       sodipodi:ry="2.524168"
       sodipodi:start="0.93349205"
       sodipodi:end="0.92436405"
       sodipodi:open="true"
       sodipodi:arc-type="chord"
       d="m 390.38046,105.80705 a 2.5890899,2.524168 0 0 1 -3.61792,-0.52209 2.5890899,2.524168 0 0 1 0.52726,-3.52839 2.5890899,2.524168 0 0 1 3.62034,0.50599 2.5890899,2.524168 0 0 1 -0.51075,3.5307 z" />
    <path
       style="fill:#ffb000;fill-opacity:1;stroke:#000000;stroke-width:0.926;stroke-dasharray:none;stroke-opacity:1"
       id="path8-2-8-7-9"
       sodipodi:type="arc"
       sodipodi:cx="441.918"
       sodipodi:cy="51.907551"
       sodipodi:rx="2.5890899"
       sodipodi:ry="2.524168"
       sodipodi:start="0.93349205"
       sodipodi:end="0.92436405"
       sodipodi:open="true"
       sodipodi:arc-type="chord"
       d="m 443.45859,53.936231 a 2.5890899,2.524168 0 0 1 -3.61793,-0.522096 2.5890899,2.524168 0 0 1 0.52727,-3.528389 2.5890899,2.524168 0 0 1 3.62033,0.505993 2.5890899,2.524168 0 0 1 -0.51074,3.530698 z" />
    <path
       style="fill:#e3e3e3;fill-opacity:1;stroke:#000000;stroke-width:0.981502;stroke-dasharray:none;stroke-opacity:1"
       id="path6-9-4-6"
       sodipodi:type="arc"
       sodipodi:cx="154.69037"
       sodipodi:cy="264.96115"
       sodipodi:rx="43.12133"
       sodipodi:ry="43.12133"
       sodipodi:start="0.93349205"
       sodipodi:end="0.92436405"
       sodipodi:arc-type="chord"
       d="m 180.3489,299.61788 a 43.12133,43.12133 0 0 1 -60.25662,-8.91918 43.12133,43.12133 0 0 1 8.78165,-60.27681 43.12133,43.12133 0 0 1 60.2967,8.64407 43.12133,43.12133 0 0 1 -8.50646,60.31627 z"
       sodipodi:open="true" />
    <path
       style="fill:#e3e3e3;fill-opacity:1;stroke:#676767;stroke-width:0.375001;stroke-dasharray:1.125, 1.125;stroke-dashoffset:0;stroke-opacity:1"
       d="M 82.797754,304.84507 214.91112,175.26011"
       id="path7-0-3-5-1" />
    <path
       style="fill:#e3e3e3;fill-opacity:1;stroke:#000000;stroke-width:0.46125;stroke-dasharray:none;stroke-opacity:1"
       d="m 135.58483,253.044 75.96902,-74.50651"
       id="path7-05-3-9" />
    <path
       style="fill:#000000;fill-opacity:1;stroke:#000000;stroke-width:1.05014;stroke-dasharray:none;stroke-opacity:0"
       id="path8-2-0-6"
       sodipodi:type="arc"
       sodipodi:cx="135.278"
       sodipodi:cy="253.35432"
       sodipodi:rx="1.7588506"
       sodipodi:ry="1.7588506"
       sodipodi:start="0.93349205"
       sodipodi:end="0.92436405"
       sodipodi:open="true"
       sodipodi:arc-type="chord"
       d="m 136.32457,254.76792 a 1.7588506,1.7588506 0 0 1 -2.45777,-0.3638 1.7588506,1.7588506 0 0 1 0.35819,-2.4586 1.7588506,1.7588506 0 0 1 2.4594,0.35258 1.7588506,1.7588506 0 0 1 -0.34696,2.46021 z" />
    <path
       sodipodi:type="star"
       style="fill:#000000;fill-opacity:1;stroke:#000000;stroke-width:0.332999;stroke-dasharray:none;stroke-opacity:0"
       id="path9-3-1-7"
       inkscape:flatsided="false"
       sodipodi:sides="3"
       sodipodi:cx="19.199635"
       sodipodi:cy="32.035961"
       sodipodi:r1="1.2841485"
       sodipodi:r2="0.64207411"
       sodipodi:arg1="1.2220253"
       sodipodi:arg2="2.2692229"
       inkscape:rounded="0"
       inkscape:randomized="0"
       d="m 19.638483,33.242795 -0.851711,-0.715098 -0.851711,-0.715099 1.045149,-0.380054 1.045149,-0.380054 -0.193438,1.095153 z"
       inkscape:transform-center-x="0.47728484"
       inkscape:transform-center-y="0.51351897"
       transform="matrix(2.9672852,0.28804673,-0.28804673,2.9672852,164.53988,77.245141)" />
    <text
       xml:space="preserve"
       style="font-size:12.7429px;font-family:Arial;-inkscape-font-specification:Arial;text-align:center;text-anchor:middle;fill:#000000;fill-opacity:1;stroke:#676767;stroke-width:0;stroke-dasharray:none;stroke-dashoffset:0;stroke-opacity:1"
       x="152.10114"
       y="330.42075"
       id="text9-9-0-8"><tspan
         sodipodi:role="line"
         id="tspan9-3-8-9"
         style="font-weight:normal;font-size:12.7429px;stroke-width:0;stroke-dasharray:none;stroke-dashoffset:0"
         x="152.10114"
         y="330.42075">ray origin is inside the object</tspan></text>
    <path
       style="fill:#ffb000;fill-opacity:0.37301588;stroke:#000000;stroke-width:0.926;stroke-dasharray:none;stroke-opacity:0.309524"
       id="path8-2-8-7-7"
       sodipodi:type="arc"
       sodipodi:cx="112.92168"
       sodipodi:cy="275.20364"
       sodipodi:rx="2.5890899"
       sodipodi:ry="2.524168"
       sodipodi:start="0.93349205"
       sodipodi:end="0.92436405"
       sodipodi:open="true"
       sodipodi:arc-type="chord"
       d="m 114.46227,277.23232 a 2.5890899,2.524168 0 0 1 -3.61793,-0.52209 2.5890899,2.524168 0 0 1 0.52727,-3.52839 2.5890899,2.524168 0 0 1 3.62033,0.50599 2.5890899,2.524168 0 0 1 -0.51074,3.5307 z" />
    <path
       style="fill:#ffb000;fill-opacity:1;stroke:#000000;stroke-width:0.926;stroke-dasharray:none;stroke-opacity:1"
       id="path8-2-8-7-9-5"
       sodipodi:type="arc"
       sodipodi:cx="165.99969"
       sodipodi:cy="223.3322"
       sodipodi:rx="2.5890899"
       sodipodi:ry="2.524168"
       sodipodi:start="0.93349205"
       sodipodi:end="0.92436405"
       sodipodi:open="true"
       sodipodi:arc-type="chord"
       d="m 167.54028,225.36088 a 2.5890899,2.524168 0 0 1 -3.61792,-0.5221 2.5890899,2.524168 0 0 1 0.52727,-3.52839 2.5890899,2.524168 0 0 1 3.62033,0.506 2.5890899,2.524168 0 0 1 -0.51075,3.5307 z" />
    <path
       style="fill:#e3e3e3;fill-opacity:1;stroke:#000000;stroke-width:0.981502;stroke-dasharray:none;stroke-opacity:1"
       id="path6-9-4-6-2"
       sodipodi:type="arc"
       sodipodi:cx="372.33591"
       sodipodi:cy="263.18582"
       sodipodi:rx="43.12133"
       sodipodi:ry="43.12133"
       sodipodi:start="0.93349205"
       sodipodi:end="0.92436405"
       sodipodi:arc-type="chord"
       d="m 397.99444,297.84255 a 43.12133,43.12133 0 0 1 -60.25662,-8.91918 43.12133,43.12133 0 0 1 8.78165,-60.27681 43.12133,43.12133 0 0 1 60.2967,8.64407 43.12133,43.12133 0 0 1 -8.50646,60.31627 z"
       sodipodi:open="true" />
    <path
       style="fill:#e3e3e3;fill-opacity:1;stroke:#676767;stroke-width:0.375001;stroke-dasharray:1.125, 1.125;stroke-dashoffset:0;stroke-opacity:1"
       d="M 300.44305,303.06975 432.55637,173.48479"
       id="path7-0-3-5-1-9" />
    <path
       style="fill:#e3e3e3;fill-opacity:1;stroke:#000000;stroke-width:0.393;stroke-dasharray:none;stroke-opacity:1"
       d="M 397.50128,207.869 429.1991,176.76217"
       id="path7-05-3-9-9" />
    <path
       style="fill:#000000;fill-opacity:1;stroke:#000000;stroke-width:1.05014;stroke-dasharray:none;stroke-opacity:0"
       id="path8-2-0-6-8"
       sodipodi:type="arc"
       sodipodi:cx="396.11139"
       sodipodi:cy="209.18216"
       sodipodi:rx="1.7588506"
       sodipodi:ry="1.7588506"
       sodipodi:start="0.93349205"
       sodipodi:end="0.92436405"
       sodipodi:open="true"
       sodipodi:arc-type="chord"
       d="m 397.15796,210.59575 a 1.7588506,1.7588506 0 0 1 -2.45777,-0.3638 1.7588506,1.7588506 0 0 1 0.35819,-2.45859 1.7588506,1.7588506 0 0 1 2.4594,0.35258 1.7588506,1.7588506 0 0 1 -0.34696,2.4602 z" />
    <path
       sodipodi:type="star"
       style="fill:#000000;fill-opacity:1;stroke:#000000;stroke-width:0.332999;stroke-dasharray:none;stroke-opacity:0"
       id="path9-3-1-7-3"
       inkscape:flatsided="false"
       sodipodi:sides="3"
       sodipodi:cx="19.199635"
       sodipodi:cy="32.035961"
       sodipodi:r1="1.2841485"
       sodipodi:r2="0.64207411"
       sodipodi:arg1="1.2220253"
       sodipodi:arg2="2.2692229"
       inkscape:rounded="0"
       inkscape:randomized="0"
       d="m 19.638483,33.242795 -0.851711,-0.715098 -0.851711,-0.715099 1.045149,-0.380054 1.045149,-0.380054 -0.193438,1.095153 z"
       inkscape:transform-center-x="0.47728484"
       inkscape:transform-center-y="0.51351897"
       transform="matrix(2.9672852,0.28804673,-0.28804673,2.9672852,382.18513,75.469816)" />
    <text
       xml:space="preserve"
       style="font-size:12.7429px;font-family:Arial;-inkscape-font-specification:Arial;text-align:center;text-anchor:middle;fill:#000000;fill-opacity:1;stroke:#676767;stroke-width:0;stroke-dasharray:none;stroke-dashoffset:0;stroke-opacity:1"
       x="380.33017"
       y="328.64542"
       id="text9-9-0-8-7"><tspan
         sodipodi:role="line"
         id="tspan9-3-8-9-1"
         style="font-weight:normal;font-size:12.7429px;stroke-width:0;stroke-dasharray:none;stroke-dashoffset:0"
         x="380.33017"
         y="328.64542">the object is &quot;behind&quot; the ray origin</tspan></text>
    <path
       style="fill:#ffb000;fill-opacity:0.37301588;stroke:#000000;stroke-width:0.926;stroke-dasharray:none;stroke-opacity:0.309524"
       id="path8-2-8-7-7-2"
       sodipodi:type="arc"
       sodipodi:cx="330.56711"
       sodipodi:cy="273.42831"
       sodipodi:rx="2.5890899"
       sodipodi:ry="2.524168"
       sodipodi:start="0.93349205"
       sodipodi:end="0.92436405"
       sodipodi:open="true"
       sodipodi:arc-type="chord"
       d="m 332.1077,275.45699 a 2.5890899,2.524168 0 0 1 -3.61793,-0.52209 2.5890899,2.524168 0 0 1 0.52727,-3.52839 2.5890899,2.524168 0 0 1 3.62033,0.50599 2.5890899,2.524168 0 0 1 -0.51074,3.5307 z" />
    <path
       style="fill:#ffb000;fill-opacity:0.37301588;stroke:#000000;stroke-width:0.926;stroke-dasharray:none;stroke-opacity:0.309524"
       id="path8-2-8-7-7-2-9"
       sodipodi:type="arc"
       sodipodi:cx="383.26941"
       sodipodi:cy="221.73871"
       sodipodi:rx="2.5890899"
       sodipodi:ry="2.524168"
       sodipodi:start="0.93349205"
       sodipodi:end="0.92436405"
       sodipodi:open="true"
       sodipodi:arc-type="chord"
       d="m 384.81,223.76739 a 2.5890899,2.524168 0 0 1 -3.61793,-0.5221 2.5890899,2.524168 0 0 1 0.52727,-3.52839 2.5890899,2.524168 0 0 1 3.62033,0.506 2.5890899,2.524168 0 0 1 -0.51074,3.53069 z" />
  </g>
</svg>
